<svg xmlns="http://www.w3.org/2000/svg" version="1.1" xmlns:xlink="http://www.w3.org/1999/xlink" viewBox="0 0 1422 800" style="overflow: hidden; display: block;" width="1422" height="800"><defs></defs><g id="two-0" transform="matrix(1 0 0 1 0 0)" opacity="1"></g><path d="M 683.9628197287387 165.0108767735323 Q 683.9628197287387 165.0108767735323 681.5012726184339 174.0110327597717 679.0397255081291 183.0111887460111 677.2010782409236 190.116780371706 675.3624309737181 197.2223719974009 671.6491373564127 208.4998031259281 667.9358437391072 219.7772342544553 663.2475811897748 232.33331577674176 658.5593186404425 244.88939729902825 651.3249965842218 262.7573944548654 644.0906745280012 280.62539161070254 636.7837992104194 297.8123068831392 629.4769238928376 314.9992221555758 620.179727935375 334.2696536616312 610.8825319779124 353.54008516768664 601.467360750067 372.57196943053304 592.0521895222214 391.6038536933794 581.5595444317978 410.68990434329794 571.0668993413743 429.77595499321643 559.5787553422674 450.9453923436686 548.0906113431604 472.11482969412066 539.0146982202093 488.5046257532107 529.9387850972583 504.89442181230066 521.8740029335696 518.642785335034 513.8092207698809 532.3911488577673 506.5189905347287 544.3365169610247 499.2287602995765 556.2818850642822 494.09787634917905 564.7652199912978 488.96699239878166 573.2485549183135 485.7333529709875 578.9085381238374 482.4997135431933 584.5685213293611 479.4064321601056 589.5716269178849 476.3131507770179 594.5747325064087 475.2727112597797 595.5058998215959 474.2322717425416 596.4370671367832 472.948967094299 596.9872635905181 471.6656624460564 597.5374600442531 470.27385500223977 597.649079922592 468.8820475584232 597.760699800931 467.52745992580174 597.422056473147 466.17287229318026 597.083413145363 464.99733015446577 596.3299626572682 463.8217880157513 595.5765121691735 462.9483709431802 594.4871409857631 462.0749538706091 593.3977698023526 461.5951088622393 592.0865353740958 461.11526385386946 590.7753009458388 461.07923080874406 589.3794898635063 461.04319776361865 587.9836787811736 461.45474935107404 586.6494328335438 461.86630093852943 585.3151868859139 462.68234759872 584.1822019759105 463.4983942589106 583.0492170659071 464.63349569109903 582.2361170126865 465.7685971232874 581.4230169594657 467.10390790788585 581.0149335532375 468.4392186924843 580.6068501470093 469.83493143785745 580.6465098281292 471.23064418323065 580.6861695092492 472.5406273965056 581.1694198986349 473.8506106097806 581.6526702880207 474.93770870272544 582.5289149423377 476.0248067956704 583.4051595966548 476.7752003109878 584.5826554692901 477.5255938263053 585.7601513419254 477.8607163648569 587.1156143041853 478.19583890340857 588.4710772664451 478.08060304694425 589.8625899883735 477.9653671904799 591.2541027103019 477.4118381635908 592.5359734425892 476.85830913670173 593.8178441748767 475.9244415746206 594.8558607134714 474.9905740125394 595.8938772520661 473.7741440955332 596.5793589913676 472.55771417852696 597.2648407306692 471.18608244001257 597.5260175516231 469.8144507014981 597.787194372577 468.43122734657356 597.5967209930855 467.048003991649 597.4062476135938 465.79801287071047 596.7840666467695 464.5480217497719 596.1618856799452 463.56213726314724 595.1731396372545 462.57625277652255 594.1843935945639 461.9576972902096 592.9326044476802 461.33914180389655 591.6808153007964 461.15267824059504 590.2970457038388 460.96621467729346 588.9132761068811 461.23136582130263 587.5424071019304 461.4965169653118 586.1715380969798 462.1855214218608 584.957100030729 462.8745258784099 583.742661964478 462.8737134731132 583.7436698613529 462.87290106781643 583.7446777582279 466.26666676386685 579.9704468305882 469.66043245991733 576.1962159029486 473.5142028053671 570.9870646960001 477.3679731508169 565.7779134890515 482.88233804072695 557.7332873903966 488.39670293063705 549.6886612917418 495.59987113292703 537.8222742472819 502.803039335217 525.9558872028219 510.74738408143367 512.3237832192076 518.6917288276503 498.6916792355932 527.6835895431484 482.3196661230379 536.6754502586466 465.94765301048267 548.0989139354863 444.708722948217 559.5223776123258 423.4697928859512 569.768886957034 404.5892345500631 580.0153963017424 385.70867621417494 589.2432708380857 366.67086060864824 598.4711453744288 347.6330450031215 607.4081286449746 328.5912511467824 616.3451119155203 309.54945729044334 623.2949960579123 292.3767354222735 630.2448802003042 275.20401355410365 636.9550731647938 257.45833525731894 643.6652661292834 239.71265696053422 647.6635893593796 227.27413526651833 651.6619125894756 214.8356135725024 654.8179350064871 203.48820836918526 657.9739574234986 192.14080316586814 660.2363878082707 185.21300590987968 662.4988181930428 178.28520865389123 665.1636291149646 169.3431290749451 667.8284400368863 160.40104949599896 668.2214659768418 159.4692073437709 668.6144919167974 158.53736519154285 669.2191078970968 157.7266625934752 669.8237238773961 156.91595999540755 670.6047895888565 156.27351502459072 671.385855300317 155.6310700537739 672.29797516709 155.1942216420969 673.2100950338632 154.7573732304199 674.2002566064365 154.55151102809464 675.1904181790097 154.34564882576936 676.2010732202626 154.38273755366737 677.2117282615155 154.41982628156538 678.184137452965 154.69771034107862 679.1565466444146 154.9755944005919 680.0341935181651 155.47812315712514 680.9118403919157 155.98065191365836 681.6437160704288 156.67861837227068 682.375591748942 157.376584830883 682.9191595833956 158.22942314820602 683.4627274178494 159.08226146552906 683.7863952201656 160.04040463848955 684.1100630224817 160.99854781145004 684.1950192047823 162.00630851381737 684.279975387083 163.01406921618468 684.1212822920611 164.01287634858784 683.9625891970393 165.01168348099097 683.962704462889 165.0112801272616 Z" fill="#d57100"></path><path d="M 886.5925236131628 118.3221843153099 Q 886.5925236131628 118.3221843153099 884.1942922132226 126.70265562760162 881.7960608132825 135.08312693989333 879.4914893276334 144.7634550051173 877.1869178419845 154.44378307034125 873.601632492312 166.70652200679413 870.0163471426395 178.969260943247 865.1723529055721 194.16757316769252 860.3283586685048 209.365885392138 855.3373695090629 225.35531583984118 850.3463803496209 241.34474628754435 844.322950162107 260.3315296939903 838.2995199745932 279.3183131004363 830.5641639891622 302.4795284614512 822.8288080037313 325.6407438224661 816.0028601951813 346.3352881313787 809.1769123866312 367.02983244029133 802.0828659397371 388.0233151727884 794.9888194928429 409.01679790528544 787.4609771271412 430.1502912189311 779.9331347614395 451.28378453257676 772.9206935326881 473.2765747080672 765.9082523039368 495.2693648835576 759.0450596261016 515.601735601809 752.1818669482666 535.9341063200604 747.3390723358573 550.0153284404098 742.4962777234479 564.0965505607592 737.5768706476954 579.6131234438279 732.6574635719429 595.1296963268967 728.6192961919351 606.9524544889734 724.5811288119273 618.7752126510503 720.72243528697 629.6460278277489 716.8637417620126 640.5168430044474 714.5877285531271 648.0630674215568 712.3117153442415 655.6092918386662 710.2219825398835 662.432881058707 708.1322497355254 669.2564702787479 706.005376933378 676.9824117586646 703.8785041312306 684.7083532385814 703.0925394789181 685.9503709610688 702.3065748266055 687.1923886835561 701.1651651924706 688.1184191931841 700.0237555583358 689.0444497028119 698.6464068323754 689.557537360774 697.2690581064151 690.0706250187359 695.7999790638221 690.1170494118014 694.330900021229 690.1634738048671 692.923903625562 689.7383742868274 691.5169072298951 689.3132747687878 690.3193063751914 688.4611593713969 689.1217055204877 687.6090439740061 688.2588893323707 686.4191294043076 687.3960731442537 685.229214834609 686.9583787053807 683.8260854621572 686.5206842665077 682.4229560897053 686.5539383001687 680.9535199301861 686.5871923338296 679.4840837706668 687.0879131339223 678.1021911778752 687.5886339340148 676.7202985850836 688.5043959005916 675.5706340782692 689.4201578671685 674.4209695714549 690.6550804805916 673.623903327963 691.8900030940144 672.8268370844713 693.3147896306702 672.4658221504009 694.739576167326 672.1048072163304 696.2050511007196 672.217641950577 697.6705260341133 672.3304766848237 699.0232537518706 672.9053472609264 700.3759814696278 673.480217837029 701.4743310226143 674.4569351539187 702.5726805756007 675.4336524708084 703.3016544756823 676.7099539675784 704.030628375764 677.9862554643483 704.313902863172 679.4285120373759 704.5971773505798 680.8707686104035 704.4050935117052 682.327975615774 704.2130096728307 683.7851826211444 703.565678736309 685.1047701007301 702.9183477997873 686.4243575803159 701.883545485551 687.4681643766671 700.8487431713148 688.5119711730182 699.5348135548259 689.1707104390185 698.2208839383369 689.8294497050189 696.7653957972852 690.0341512656279 695.3099076562337 690.2388528262369 693.8652509831992 689.9680843740229 692.4205943101647 689.6973159218088 691.1380250401662 688.9794269851946 689.8554557701679 688.2615380485802 688.8692592443398 687.1716917887334 687.8830627185117 686.0818455288866 687.2964939734388 684.7341491369046 686.7099252283658 683.3864527449227 686.5843981664963 681.9220103888035 686.4588711046267 680.4575680326843 686.8075284424742 679.0297072136888 687.1561857803217 677.6018463946932 687.1556527923044 677.603100568579 687.1551198042871 677.6043547424647 690.1345035879739 670.7344325171667 693.1138873716607 663.8645102918688 695.8316502919249 657.3005610066006 698.5494132121892 650.7366117213323 701.5541451997954 643.3680008800861 704.5588771874017 635.9993900388398 708.6022300347042 625.346267101898 712.6455828820069 614.6931441649562 716.6462198969766 603.0108432947084 720.6468569119464 591.3285424244607 725.5958108206999 575.6631318537142 730.5447647294533 559.9977212829676 735.3518511157436 545.9421001549099 740.1589375020337 531.8864790268522 746.9548742880506 511.64624091842853 753.7508110740677 491.4060028100049 760.7844696465215 469.1973700741553 767.8181282189755 446.98873733830567 775.2469040953101 425.9366262632514 782.6756799716446 404.88451518819716 789.6651846618026 383.91230078367965 796.6546893519607 362.94008637916215 803.3657075690114 342.18632109006717 810.0767257860622 321.4325558009722 817.6077992243793 298.33187584751147 825.1388726626964 275.23119589405076 830.9124976622643 256.2307187259953 836.6861226618323 237.2302415579398 841.3598820641362 221.13243090203667 846.0336414664401 205.03462024613356 850.3604401745195 189.96605057841947 854.6872388825986 174.8974809107054 857.6028075387397 162.6842884619988 860.5183761948808 150.47109601329217 862.9556858890414 140.25476506190694 865.3929955832019 130.0384341105217 868.1211222154883 121.75826375258637 870.8492488477747 113.47809339465104 871.2534495854014 112.57135328325566 871.6576503230282 111.66461317186028 872.2671088620575 110.88095753631903 872.8765674010867 110.09730190077778 873.655861982595 109.48227684344822 874.4351565641032 108.86725178611866 875.3389945503981 108.45660259222961 876.242832536693 108.04595339834059 877.2186828215445 107.86354701833517 878.1945331063959 107.68114063832974 879.1856792253982 107.73757853958418 880.1768253444004 107.7940164408386 881.1256618385484 108.08601844988027 882.0744983326963 108.37802045892192 882.9258787803691 108.88861540526565 883.7772592280419 109.3992103516094 884.4817013576189 110.0987224329835 885.1861434871959 110.7982345143576 885.702705089008 111.64600805572618 886.2192666908201 112.49378159709475 886.5179251802995 113.44054396040099 886.8165836697788 114.38730632370724 886.8799810014843 115.37803163591235 886.94337833319 116.36875694811745 886.7678298512245 117.34586420752703 886.592281369259 118.32297146693662 886.5924024912109 118.32257789112326 Z" fill="#d57100"></path><path d="M 400.5114101189373 268.4273662524893 Q 400.5114101189373 268.4273662524893 407.6304539539258 272.1429476151551 414.7494977889143 275.8585289778209 421.80574731585136 279.2212004028793 428.86199684278836 282.5838718279376 436.76748731122535 285.86559004325255 444.67297777966235 289.1473082585675 453.2780646399314 292.12601251368676 461.8831515002005 295.1047167688061 471.6458078917964 298.43741146933894 481.4084642833923 301.77010616987184 494.9696135941201 305.0238860926969 508.530762904848 308.277666015522 523.3740318112469 311.4265245487938 538.2173007176459 314.57538308206557 558.1355603862269 317.58165647395026 578.0538200548079 320.587929865835 599.0106806408717 323.21645868910196 619.9675412269354 325.84498751236885 641.6833113395401 328.29181367667076 663.3990814521447 330.73863984097267 688.2437518258816 332.76720605661785 713.0884221996187 334.79577227226304 738.6773677908948 336.32309787062326 764.266313382171 337.8504234689835 787.6552767174691 339.16002767584257 811.0442400527671 340.4696318827016 829.9315494877433 341.3587159060401 848.8188589227195 342.24779992937863 865.8124103775025 342.95556211002986 882.8059618322854 343.66332429068103 897.6587106009322 343.96942332203594 912.511459369579 344.2755223533908 924.6749920838379 344.6819002081826 936.8385247980968 345.0882780629744 945.7859647247785 344.9453069667335 954.7334046514603 344.80233587049264 964.3330914843257 344.7096205543994 973.9327783171909 344.6169052383061 976.3582149249519 344.9754907522925 978.783651532713 345.3340762662789 980.0812442538731 345.89164612065997 981.3788369750333 346.449215975041 982.4304621722937 347.3919330359927 983.482087369554 348.3346500969444 984.1776396071594 349.56381163933196 984.8731918447648 350.7929731817195 985.13984661983 352.17988566758777 985.406501394895 353.5667981534561 985.2163398820805 354.9662514794254 985.0261783692661 356.36570480539467 984.3991105291614 357.63117583881615 983.7720426890567 358.8966468722376 982.7737226900506 359.8956404618602 981.7754026910446 360.89463405148274 980.5103549005639 361.5225553047642 979.2453071100833 362.1504765580456 977.8459823657317 362.34158195401227 976.44665762138 362.5326873499789 975.0595655932768 362.26696810322613 973.6724735651736 362.00124885647335 972.442843154818 361.30652584227926 971.2132127444623 360.61180282808516 970.2697865804093 359.56081372942486 969.3263604163564 358.50982463076457 968.7679154670228 357.2126082837021 968.2094705176893 355.9153919366396 968.0944761166854 354.5077672351441 967.9794817156816 353.1001425336487 968.3199778071482 351.72948815554366 968.6604738986148 350.3588337774387 969.420810451893 349.1686575979294 970.1811470051713 347.9784814184201 971.2817165824235 347.09339519767707 972.3822861596758 346.20830897693406 973.7078588356417 345.72098147590924 975.0334315116075 345.2336539748844 976.4452194771961 345.195108511577 977.8570074427847 345.1565630482696 979.2071961253231 345.5708353428629 980.5573848078615 345.9851076374562 981.7046090958727 346.80882327134907 982.8518333838839 347.632538905242 983.6759785915754 348.77945463412595 984.5001237992669 349.92637036301 984.9149017058401 351.27640380731464 985.3296796124133 352.62643725161934 985.2916628615594 354.03823955335173 985.2536461107054 355.4500418550841 984.7668150662741 356.7757969405733 984.2799840218428 358.1015520260624 983.395310022697 359.2024529878922 982.5106360235512 360.30335394972195 981.3207446709328 361.06413616657926 980.1308533183143 361.8249183834365 978.7603265509431 362.16592775638924 977.389799783572 362.506937129342 975.9821321157759 362.3924698870244 974.5744644479798 362.27800264470676 974.5757352424678 362.27831833374046 974.5770060369556 362.2786340227742 973.8382999253013 361.8516914096863 973.0995938136468 361.42474879659835 963.7675032440552 360.1902615556868 954.4354126744637 358.95577431477517 945.4017120525518 358.4352562166796 936.3680114306401 357.91473811858395 924.316006497243 357.43277008665876 912.2640015638461 356.9508020547336 897.2785159260138 356.6744484769474 882.2930302881816 356.3980948991613 865.2649454958726 355.7353803524219 848.2368607035635 355.0726658056824 829.2903274696005 354.2448304239243 810.3437942356376 353.41699504216626 786.9289348618508 352.19452060226774 763.5140754880641 350.97204616236917 737.7787009010251 349.5570443755506 712.0433263139862 348.14204258873207 686.9891481983052 346.26299026997225 661.9349700826241 344.38393795121243 640.1214887518371 342.15964529547597 618.3080074210501 339.9353526397395 597.1531118248226 337.60402310082964 575.9982162285952 335.2726935619198 555.632229675517 332.6396801451672 535.2662431224387 330.0066667284146 520.1563812706137 327.4253975800581 505.0465194187887 324.84412843170156 490.3466975750558 322.1539961538433 475.6468757313229 319.463863875985 465.6533907088153 316.34962397805793 455.65990568630775 313.2353840801309 446.42722816688473 310.0913446310385 437.1945506474617 306.94730518194615 428.7606003276297 303.36130879049915 420.32665000779764 299.77531239905215 413.0611530137386 296.0251695121293 405.7956560196795 292.27502662520646 398.81723281365237 288.30108848713985 391.8388096076252 284.3271503490732 390.95051956501726 283.6927498426862 390.0622295224093 283.0583493362993 389.35157992611335 282.22979616746534 388.64093032981737 281.4012429986314 388.1492241677598 280.42669271645246 387.6575180057023 279.4521424342735 387.4133332631246 278.3882359469389 387.169148520547 277.32432945960426 387.1866772261609 276.2329010621453 387.2042059317747 275.14147266468626 387.4824293163862 274.0859562268438 387.7606527009977 273.03043978900126 388.2834004084209 272.0721819757359 388.80614811584417 271.1139241624705 389.5430380247625 270.30861896291276 390.2799279336809 269.50331376335504 391.18813196796543 268.89776555354035 392.0963360022499 268.2922173437257 393.1230693007562 267.9216206140601 394.14980259926244 267.55102388439445 395.2353913744404 267.43691773421847 396.3209801496184 267.3228115840425 397.40232993084857 267.4718278681656 398.48367971207875 267.62084415228867 399.49794239926905 268.02432203727614 400.5122050864593 268.4277999222636 400.5118076026983 268.42758308737643 Z" fill="#d57100"></path><path d="M 862.3968482226873 706.3035460973067 Q 862.3968482226873 706.3035460973067 867.2592444488685 696.3979460037408 872.1216406750498 686.492345910175 877.1069100529485 677.5208508810906 882.0921794308471 668.5493558520063 887.8069926056675 658.7875713957449 893.5218057804879 649.0257869394834 901.6246851743377 636.2481862161833 909.7275645681876 623.4705854928832 918.0070277951716 610.1253391624592 926.2864910221554 596.7800928320353 936.9251557885873 579.8814303179115 947.5638205550191 562.9827678037879 960.4262288807602 542.0810956321657 973.2886372065012 521.1794234605436 987.0805947122449 497.6217952455142 1000.8725522179885 474.0641670304848 1013.7843876083996 450.9559479999632 1026.6962229988108 427.84772896944156 1038.9267467504146 405.53630258987437 1051.1572705020185 383.2248762103072 1062.4453751883402 362.22624379262743 1073.7334798746617 341.22761137494774 1085.254759211954 319.1924056093378 1096.7760385492463 297.1571998437278 1105.507235874586 279.8150257589815 1114.238433199926 262.4728516742352 1120.755977033503 246.95075609410986 1127.2735208670802 231.42866051398454 1132.2674044601913 217.534577468875 1137.2612880533027 203.64049442376543 1140.1578363003164 193.01208856257352 1143.0543845473303 182.38368270138162 1145.003323384582 173.9265442255258 1146.952262221834 165.46940574966996 1147.8927006937724 154.05233654527666 1148.833139165711 142.6352673408834 1148.760940442126 136.0749794932699 1148.688741718541 129.51469164565643 1148.5953150453754 127.78784829605985 1148.5018883722098 126.06100494646326 1148.808922309493 124.49541529963622 1149.1159562467762 122.92982565280917 1149.9068274346469 121.5442342465527 1150.6976986225175 120.15864284029624 1151.8896026388356 119.09812146060601 1153.081506655154 118.03760008091578 1154.5496508347792 117.4131855961958 1156.0177950144046 116.78877111147584 1157.6084642741775 116.66583988310573 1159.1991335339508 116.54290865473563 1160.7457843824775 116.93433161477643 1162.2924352310042 117.32575457481721 1163.6331329161676 118.19054963602701 1164.9738306013312 119.0553446972368 1165.968203721585 120.3029675884232 1166.9625768418389 121.55059047960961 1167.5065142690034 123.05041475472495 1168.050451696168 124.5502390298403 1168.0870030380338 126.14523269136485 1168.1235543798994 127.74022635288941 1167.648892701324 129.26339314342408 1167.1742310227487 130.78655993395878 1166.238053526778 132.07842388845768 1165.301876030807 133.37028784295654 1164.0022007483958 134.2955904643646 1162.7025254659843 135.22089308577267 1161.1754287422818 135.68275494537232 1159.6483320185794 136.14461680497195 1158.0537012836717 136.0946808441434 1156.4590705487642 136.04474488331488 1154.963864061538 135.48823941033874 1153.468657574312 134.93173393736257 1152.2294238486759 133.92692522216257 1150.9901901230398 132.92211650696257 1150.136677257194 131.5742082872639 1149.283164391348 130.22630006756526 1148.904735407652 128.67641868978362 1148.526306423956 127.12653731200196 1148.6625829368982 125.53695576551999 1148.7988594498402 123.94737421903804 1149.4355732725421 122.48452211138121 1150.0722870952438 121.02167000372437 1151.1427741223924 119.83870833671979 1152.213261149541 118.65574666971521 1153.6054411068126 117.87653184216981 1154.9976210640843 117.09731701462441 1156.565732342453 116.80343302467494 1158.1338436208216 116.50954903472547 1159.713704555501 116.73176561369746 1161.2935654901803 116.95398219266947 1162.7197642242663 117.66903320608509 1164.1459629583526 118.38408421950072 1165.2691761079068 119.51710363750021 1166.3923892574612 120.65012305549972 1167.095016109226 122.08248344593046 1167.7976429609905 123.51484383636121 1168.0061182981103 125.09657668823868 1168.2145936352301 126.67830954011616 1168.214639933075 126.67683108721036 1168.2146862309198 126.67535263430456 1167.6628009250132 131.40333834683972 1167.1109156191067 136.13132405937486 1165.441544189662 145.87205042539404 1163.7721727602172 155.61277679141324 1162.3645184713785 162.43138245862525 1160.9568641825397 169.24998812583723 1158.3430587377316 177.64334427331391 1155.7292532929237 186.0367004207906 1152.41333423794 196.9635094979431 1149.0974151829562 207.89031857509562 1143.996965096735 222.09812353404095 1138.8965150105141 236.30592849298625 1132.2168487966733 252.2276592870043 1125.5371825828324 268.1493900810223 1116.7858303021158 285.59116968336883 1108.0344780213989 303.03294928571535 1096.5134574469216 325.14857265891067 1084.9924368724444 347.26419603210604 1073.726185550834 368.3320825439682 1062.4599342292236 389.39996905583035 1050.268494108763 411.789584746233 1038.0770539883024 434.17920043663565 1025.1882652289116 457.44762372205867 1012.2994764695208 480.71604700748173 998.5545937192963 504.4621451976163 984.809710969072 528.2082433877508 972.0810741210738 549.2529307810137 959.3524372730757 570.2976181742764 948.9783982357187 587.2630239205896 938.6043591983616 604.2284296669027 930.6126771011732 617.79203190883 922.6209950039846 631.3556341507574 915.055091368302 644.1992241169971 907.4891877326194 657.0428140832369 901.9680869374462 666.8568910495142 896.446986142273 676.6709680157915 891.5800662272638 685.1130491509527 886.7131463122548 693.5551302861141 881.9636300018151 703.5141587936225 877.2141136913752 713.4731873011308 876.6775009217615 714.3076284145277 876.1408881521478 715.1420695279246 875.4201683006102 715.8238379136972 874.6994484490724 716.5056062994698 873.836509787245 716.9950775470043 872.9735711254174 717.4845487945388 872.0185676888706 717.7532748119307 871.0635642523238 718.0220008293227 870.0720008856604 718.0543632478152 869.080437518997 718.0867256663079 868.1099439316758 717.8808435806177 867.1394503443547 717.6749614949274 866.2464316692694 717.2428007815481 865.353412994184 716.8106400681689 864.5897715186888 716.1773179280672 863.8261300431938 715.5439957879654 863.2362486457239 714.7463209336804 862.6463672482541 713.9486460793953 862.2645298633462 713.0329794109366 861.8826924784382 712.1173127424779 861.7310915128435 711.1368728496388 861.5794905472488 710.1564329567997 861.6669370562106 709.1682030522178 861.7543835651724 708.1799731476359 862.0757951534812 707.2413891997973 862.39720674179 706.3028052519586 862.3970274822386 706.3031756746327 Z" fill="#d57100"></path><path d="M 971.9713936241628 100.6760097994071 Q 971.9713936241628 100.6760097994071 982.8568935879671 101.72785912847948 993.7423935517714 102.77970845755188 1003.1396857357422 103.41168889799995 1012.5369779197129 104.04366933844803 1022.8818232178907 104.6990420844256 1033.2266685160685 105.35441483040317 1043.9087393626205 105.68779238727896 1054.5908102091728 106.02116994415475 1065.8616595666215 106.25301854009044 1077.1325089240702 106.48486713602612 1089.8370700101366 106.47244009856578 1102.541631096203 106.46001306110546 1118.0061920931869 105.26388231243806 1133.4707530901708 104.06775156377067 1151.6431286263028 102.33253388277569 1169.8155041624345 100.59731620178071 1190.3343980568025 98.30145475565882 1210.8532919511704 96.00559330953693 1231.9736741564234 92.83036388534865 1253.0940563616766 89.65513446116034 1277.8054353381872 85.75971987328151 1302.5168143146977 81.86430528540268 1323.8970540398745 78.30475969586121 1345.2772937650511 74.74521410631975 1346.3205283170855 74.74082968275766 1347.3637628691201 74.73644525919556 1348.353783950796 75.06540697667347 1349.343805032472 75.3943686941514 1350.1769571751975 76.02223417401191 1351.0101093179228 76.65009965387245 1351.5991612724238 77.51113121463379 1352.188213226925 78.37216277539514 1352.4714910980706 79.37621018535533 1352.7547689692162 80.38025759531553 1352.7026134891194 81.42219682560898 1352.6504580090227 82.46413605590242 1352.2683298702175 83.43487579407213 1351.8862017314123 84.40561553224184 1351.2141098509032 85.20351907145105 1350.5420179703945 86.00142261066027 1349.6503305454862 86.5429492397277 1348.758643120578 87.08447586879514 1347.740720060041 87.31292760670829 1346.7227969995038 87.54137934462142 1345.6852151164817 87.43283723411537 1344.6476332334598 87.32429512360932 1343.6990276250003 86.89012355230639 1342.7504220165406 86.45595198100345 1341.9901119402568 85.74160882702921 1341.229801863973 85.02726567305498 1340.737391985554 84.10754285319884 1340.2449821071352 83.18782003334269 1340.0720278708354 82.1590127696268 1339.8990736345356 81.13020550591092 1340.063683394551 80.10003019042512 1340.2282931545662 79.0698548749393 1340.7132322255702 78.14617113515479 1341.1981712965744 77.22248739537027 1341.9526664298216 76.50200516267131 1342.707161563069 75.78152292997237 1343.652216918941 75.3396768843114 1344.597272274813 74.89783083865044 1345.6339403080797 74.78088237764419 1346.6706083413462 74.66393391663793 1347.6903496352706 74.88412757502513 1348.710090929195 75.10432123341235 1349.6061383011179 75.63860267703441 1350.5021856730405 76.17288412065646 1351.1807227265876 76.96531394132953 1351.859259780135 77.7577437620026 1352.2492435066843 78.72535434832105 1352.6392272332332 79.6929649346395 1352.6998262336685 80.73444720279142 1352.7604252341039 81.77592947094332 1352.4852947770835 82.78223995252856 1352.210164320063 83.78855043411379 1351.6281106370643 84.65432815607022 1351.0460569540653 85.52010587802664 1350.2180212193452 86.1547036843223 1349.3899854846252 86.78930149061794 1348.4026632581895 87.12627682341612 1347.4153410317535 87.4632521562143 1347.4162948846144 87.46309180266809 1347.4172487374753 87.46293144912188 1325.9961647901887 91.1053783988371 1304.5750808429018 94.74782534855234 1279.841084553781 98.75177170652911 1255.1070882646602 102.75571806450588 1233.7652148471966 106.1052220225123 1212.4233414297328 109.45472598051869 1191.8332845367338 111.95692216003991 1171.2432276437348 114.45911833956113 1152.998589493599 116.47469652304466 1134.7539513434629 118.49027470652818 1118.810423784063 120.08853654224956 1102.8668962246632 121.68679837797092 1089.9181480696059 122.21841358798665 1076.9693999145486 122.75002879800236 1065.5732687735815 122.75422443734449 1054.1771376326144 122.75842007668662 1043.1879569732432 122.55614361804815 1032.1987763138723 122.35386715940969 1021.7074062695284 121.74887751594196 1011.2160362251846 121.14388787247422 1001.7419040393434 120.31806211194116 992.267771853502 119.4922363514081 981.3662677279508 118.62170580529738 970.4647636023997 117.75117525918665 969.4540887545025 117.53698122754315 968.4434139066054 117.32278719589966 967.5133708802678 116.87293977674025 966.5833278539302 116.42309235758084 965.7879707935408 115.76373670404305 964.9926137331513 115.10438105050527 964.3781688284296 114.2738389441524 963.7637239237079 113.44329683779954 963.3659027413858 112.48983942487568 962.9680815590636 111.53638201195183 962.8100054849493 110.51542428209413 962.651929410835 109.49446655223643 962.7427858337833 108.4653466166737 962.8336422567314 107.43622668111097 963.1681505971715 106.4587570388511 963.5026589376116 105.48128739659124 964.0613775550803 104.6122786291686 964.6200961725491 103.74326986174597 965.370552314748 103.03322879955337 966.1210084569468 102.32318773736077 967.0195855776311 101.81338200029398 967.9181626983154 101.30357626322719 968.9126354530116 101.02363578467764 969.9071082077078 100.74369530612809 970.9396777931878 100.70989023986203 971.9722473786678 100.67608517359598 971.9718205014153 100.67604748650155 Z" fill="#d57100"></path></svg>