<svg xmlns="http://www.w3.org/2000/svg" version="1.1" xmlns:xlink="http://www.w3.org/1999/xlink" xmlns:svgjs="http://svgjs.dev/svgjs" viewBox="0 0 1422 800"><defs><linearGradient x1="50%" y1="0%" x2="50%" y2="100%" id="ssscribble-grad"><stop stop-color="hsl(24, 100%, 46%)" stop-opacity="1" offset="0%"></stop><stop stop-color="hsl(35, 100%, 50%)" stop-opacity="1" offset="100%"></stop></linearGradient></defs><g fill="none" stroke-width="1.25" stroke="url(#ssscribble-grad)" stroke-linecap="round"><path d="M1463.03 619.64C1483.98 638.63 1476.94 658.43 1443.69 678.54 1388.9 698.12 1318.88 716.94 1241.92 733.79 1165.83 748.58 1098.62 759.49 1046.42 764.93 1013.36 766.37 1001.31 760.48 1009.45 746.2 1036.77 727.5 1077.94 700.72 1127.53 666.94 1182.67 632.92 1235.55 596.75 1281.39 562.57 1330.9 531.21 1339.01 567.61 1299.39 649.7 1258.41 725.97 1209.77 813.16 1156.5 902.74 1099.12 982.41 1041.62 1044.42 986.11 1078.96 931.68 1080.86 881.64 1048.77 836.65 986.4 795 906.98 758.63 821.83 727.08 747.89 698.81 703.27 674.36 696.9 652.87 734 633.55 809.72 615.91 911.15 599.12 1018.51 583.35 1108.51 567.44 1161.95 550.83 1165.26 534.48 1117.94 516.92 1029.02 497.94 918.95 478.95 816.47 458.99 746.22 438.36 723.41 417.99 752.54 397.46 824.13 377.43 919.67 358.42 1019.39 340.89 1098.66 325.76 1141.19 312.81 1140.13 303.54 1095.05 298.91 1016.18 297.56 917.14 301.85 816.38 312.32 730.12 326.15 669.33 345.92 641.95 371.09 647.83 397.34 684.2 426.58 740.9 456.8 806.7 482.91 874.73 505.47 931.74 521.57 970.94 527.13 990.81 521.8 987.39 503.56 963.02 471.68 920.24 426.52 863.96 369.25 799.97 303.64 729.76 232.37 660.59 160.29 596.07 93.77 534.82 37.13 481.84 -4.1 437.37 -26.16 398.81 -26.46 367.87 -4.12 342.97 37.36 322.45 95.5 305.55 164.27 290.52 233.9 277.53 298.34 264.41 349.37 249.98 378.86 236.06 383.98 219.83 363.03 200.85 317.35 181.87 254.36 160.58 182.37 137.52 108.22 114.96 42.59 91.65 -7.18 68.83 -37.43 48.06 -43.6 29.79 -25.91 15.86 13.11 6.31 69.68 3.53 137.74 9.19 211.92 20.76 285.19 41.65 351.82 71.72 408.15 105.07 450.21 143.97 476.67 184.92 486.95 219.66 482.51 247.69 465.98 263.32 438.16 260.53 404.21 237.88 367.78 193.15 328.94 129.07 293.37 48.37 263.32 -42.07 237.48 -130.28 219.8 -208.14 210.5 -264.28 207.66 -289.94 212.83 -280.97 224.88 -237.12 242.43 -167.8 265.03 -82.52 291.15 2.61 320.68 67.56 351.85 100.3 383.37 90.67 416.5 37.43 448.69 -50.88 479.09 -157.92 510.05 -260.79 538.56 -337.98 564.11 -370.88 589.78 -351.86 612.25 -283.56 631.24 -181.09 650.22 -71.01 665.27 19.84 676.58 70.93 688 71.4 695.93 23.57 700.78 -59.09 706.19 -159.12 709.16 -251.49 710.48 -316.51 713.4 -342.91 715.95 -324.2 719.32 -265.66 726.1 -177.81 735.58 -77.19 749.21 19.15 768.33 98.46 793.42 148.96 825.53 166.83 864.08 152.06 910.02 111.2 963.03 53.94 1020.24 -13.21 1081.88 -76.7 1145.6 -128.09 1206.91 -164.7 1264.56 -179.84 1314.79 -173.71 1353.74 -148.26 1379.32 -106.11 1388.81 -52.43 1382.12 10.99 1358.46 77.42 1319.06 142.61 1269.36 207.57 1211.56 266.44 1151.3 318.03 1097.16 365.21 1052.95 404.82 1024.63 437.83 1017.65 466.83 1032.89 491.09 1070.46 512.11 1127.57 531.05 1198.79 548.67 1276.69 566.07 1352.44 582.94 1417.35 600.66 1463.03 619.64Q1463.03 619.64 1463.03 619.64" opacity="0.41"></path><path d="M1435.19 593.5C1455.99 611.54 1451.47 626.6 1423.01 638.46 1374.39 649.91 1310.65 657.39 1238.74 660.27 1165.26 661.86 1097.35 657.87 1040.77 647.83 999.6 636.13 976.52 618.37 971.84 595.13 985.51 572.13 1014 546.14 1053.28 519.62 1101.31 498.87 1151.42 483 1199.12 475.88 1243.2 481.88 1278.07 501.91 1301.73 538.28 1314.74 589.77 1314.91 656.03 1303.13 733.84 1280.73 815.05 1248.84 895.4 1209.8 966.41 1164.3 1018.75 1115.37 1047.27 1065.17 1046.71 1013.1 1017.88 962.52 962.77 914.66 888.67 867.8 810.15 824.76 737.48 785.78 684.73 748.72 664.75 715.54 681.97 685.89 736.86 657.85 821.32 632.58 922.1 609.59 1020.96 587.45 1098.3 566.82 1139.03 547.32 1133.34 528.05 1082.79 509.45 996.07 491.41 891.26 464.86 758.43 417.86 744.65 398.99 860.31 387.97 956.24 379.82 1040.48 375.14 1097.03 372.07 1117.4 373.22 1096.9 379.02 1040.68 386.75 957.88 399.31 862.75 416.55 769.97 434.8 690.58 456.63 635.53 480.9 609.15 503.3 612.4 525.39 641.14 545.08 687.93 558.32 747.86 565.44 809.23 564.21 864.07 552.35 909.81 529.67 938.72 495.36 949.4 450.4 943.13 395.46 919.96 332.59 883.47 266.11 835.34 198.53 780.47 134.41 722.9 79.04 662.03 35.85 603.55 8.96 549.48 0.42 497.03 11.76 450.56 42.75 410.11 89.15 372.26 148.45 339.68 214.97 311.55 279.92 285.05 338.36 261.63 383.41 240.54 408.3 219.91 410.99 200.7 390.19 182.67 347.1 164.63 288.19 148.19 220.55 133.69 149.83 119.66 85.43 108.45 33.92 100.94 -8.44 94.64 41.91 114.28 122.93 142.7 190.19 165.52 260.41 193.51 328.3 224.77 390.46 252.73 442.41 278.85 481.95 299.19 508.04 307.89 520.39 304.23 520.32 284.7 508.18 248.22 487.4 194.55 460.92 125.18 428.73 46.7 395.84 -37.17 364.67 -118.4 334.04 -186.49 308.43 -235.33 288.82 -257.36 273.12 -249.77 264.26 -212.21 261.9 -148.91 263.96 -72.23 271.67 8.2 284 77.79 299.68 120.79 318.55 129.57 339.49 99.04 362.36 32.33 386.02 -60.51 409.59 -163.4 433.98 -256.18 457.44 -321.19 479.39 -343.9 501.54 -319.62 521.78 -251.71 539.81 -153.78 557.85 -48.96 573.25 39.59 586.23 93.73 599.41 103.01 610.56 67.6 620.19 -2.75 630.63 -94.65 640.38 -186.82 650.24 -261.11 662.02 -305.84 675.19 -311.33 690.76 -278.14 709.68 -212.17 732.45 -124.81 760 -30.21 791.99 59.98 829.59 132.57 873.09 180.18 920.5 199.53 972.96 191.09 1029.39 160.05 1086.36 110.34 1144.02 52.5 1199.84 -5.06 1249.97 -59.23 1293.26 -100.73 1326.7 -126.42 1348.06 -136.98 1355.79 -130.17 1348.48 -108.37 1327.73 -73.45 1293.25 -28.83 1247.18 21.52 1195.37 77.65 1139.85 134.12 1085.81 188.37 1040.64 242.86 1007.14 292.66 989.86 337.08 992.63 379.84 1015.47 417.24 1057.69 449.67 1116.16 480.8 1185.86 507.93 1260.15 531.61 1331.36 554.89 1392.1 575.47 1435.19 593.5Q1435.19 593.5 1435.19 593.5" opacity="0.15"></path><path d="M1408.01 470.64C1428.1 487.73 1425.42 499.75 1401.03 506.81 1358.03 513.76 1300.38 515.56 1233.86 512.34 1096.65 505.77 990.86 481.39 943.14 447.89 961.09 429.97 1027.64 428.46 1113.86 465.05 1201.86 547.21 1259.98 675.13 1278.16 827.41 1259.52 953.58 1206.01 1016.63 1131.98 980.34 1042.44 865.67 952.6 722.2 871.17 637.44 791.49 678.85 724.45 835.46 669.96 1021.45 643.48 1085.72 619.55 1114.34 598.04 1100.62 576.69 1047.61 557.46 963.45 540.38 863.94 516.02 736.17 480.61 703.38 470.44 802.42 460.48 979.93 465.36 1083.76 485.82 1052.97 508.02 908.56 541.59 731.6 578.46 607 599.82 576.26 604.27 634.36 578.12 733.3 515.16 837.87 416.51 897.14 292.94 900.41 171.13 855.55 73.94 775.66 30.94 684.96 53.61 584.32 139.95 496.1 263.97 426.24 323.9 392.07 376.52 362.36 416.14 337.02 437.15 311.91 438.1 290.78 418.01 273.69 377.87 256.61 323.26 243.97 260.15 235.79 193.12 227.85 130.39 224.76 77.78 226.71 15.64 232.11 30.08 258.16 111 299.58 234.1 331.06 364.12 354.69 470.21 346.89 536.74 290.96 556.65 182.65 539.93 33.29 492.87 -110.43 438.19 -209.06 391.09 -213.92 337.78 -51.76 345.27 84.9 387.23 -167.41 403.79 -249.09 421.08 -302.06 438.6 -315.33 456.34 -286.54 473.87 -219.42 490.95 -126.1 508.04 -26.58 524.28 59.32 539.82 115.72 555.59 132.84 571.08 109.27 586.75 51.6 620.58 -121.19 660.06 -258.36 710.61 -274.75 771.5 -164.95 849.49 9.16 944.61 159.41 1044.38 231.29 1148.13 208.76 1239.97 127.38 1301.48 19.89 1322.09 -58.97 1291.14 -88.46 1220.63 -72.38 1121.26 -14.59 1023.2 62.53 967.34 155.26 972.35 241.8 1047.67 312.82 1106.88 348.27 1174.63 379.25 1245.04 405.59 1311.53 431.81 1367.87 453.56 1408.01 470.64Q1408.01 470.64 1408.01 470.64" opacity="0.99"></path><path d="M1380.53 312.19C1399.94 344.47 1341.45 358.59 1229.31 358.17 1098.51 361.39 987.6 358.78 923.07 362.49 915.9 387.29 958.06 438.96 1028.5 528.02 1113.56 642.73 1183.79 777.32 1225.41 900.99 1239.19 973.21 1219.12 971.56 1174.17 886.35 1109.83 760.34 1036.59 643.8 964.17 607.2 888.36 686.3 820.95 851.85 764.9 1018.88 709.38 1088.11 665.02 1013.55 632.75 836.45 600.47 680.43 581.81 647.01 576.46 746.09 571.65 913.2 580.34 1036.92 600.23 1049.58 616.71 948.97 636.8 786.57 651.4 637.53 646.61 550.54 620.35 547.9 564.27 606.61 480.35 702.74 371.84 788.43 253.18 839.03 149.14 855.45 78.03 830.78 61.55 780.72 102.42 711.57 194.96 639.53 313.31 576.18 412.99 510.64 464.94 460.13 445.53 427.86 356.06 395.58 234 383.06 122.73 387.73 51.75 390.21 47.15 403.54 105.33 416.77 209.37 410.9 332.02 382.44 445.08 316.28 532.76 215.94 581.99 83.92 595.37 -54.5 576.2 -155.52 539.85 -191.16 500.36 -137.79 420.3 62.54 452.72 -268.01 498.41 -98.6 530.69 78.51 566.86 159.65 608.27 102.9 652.29 -51.65 706.08 -198.84 772.14 -254.32 843.98 -194.07 929.01 -48.59 1023.12 111.02 1112.35 229.84 1195.04 269.77 1256.52 239.85 1285.45 158.48 1274.49 70.22 1220.42 5.25 1140.97 -34.06 1047.27 -32.58 966.87 -1.46 932.34 50.76 955.29 112.08 1038.72 169.72 1162.43 231.01 1291.03 279.91 1380.51 312.18Q1380.53 312.19 1380.53 312.19" opacity="0.49"></path><path d="M1353.03 197.75C1373.49 228.12 1324.17 250.65 1224.16 269.55 1101.58 293.65 989.01 324.27 911.57 371.11 881.85 435 898.85 524.4 948.76 637.58 1022.18 752.2 1093.96 859.86 1149.08 930.9 1187.15 942.99 1196.53 887.72 1180.92 776.41 1146.25 660.85 1096.94 583.73 1041.81 594.57 979.93 702.59 920.98 868.23 869.7 1012.88 817.59 1059.03 775.38 977.39 745 808.95 714.63 659.31 697.53 615.37 692.35 692.14 688.19 911.62 701.4 909.83 688.9 692.31 657.69 567.38 604.7 507.32 526.83 511.68 431.89 569.52 324.1 646.95 219.05 715.56 137.51 772.29 93.27 796.22 100.73 791.33 155.9 767.7 251.18 729.01 362.03 686.61 450.33 639.51 493.49 598.42 473.03 568.04 390.3 537.66 276.87 519.44 169.03 509.25 91.67 494.37 70.45 477.8 106.53 448.8 188.97 401.06 298.27 327.11 410.16 223.57 510.21 108.15 582.27 -12.88 623.23 -110.55 634.18 -154.73 622.96 -130.71 600.7 -37.42 566.89 82.54 537.06 187.16 517.28 218.09 498.45 146 492.9 -6.18 500.46 -169.94 509.46 -258.46 529.45 -220.71 559.82 -71.1 590.2 97.35 629.52 185.18 677.8 150.78 727.53 17.87 788.33 -130.49 859.8 -216.25 932.21 -204.85 1012.07 -100.5 1092.7 46.68 1161.78 189.63 1216.62 280.92 1245.49 308.64 1244.35 277.42 1208.32 213.37 1139.9 145.56 1059.63 79.2 977.57 39.82 917.39 28.57 903.56 34.37 942.06 59.01 1031.13 92.19 1150.68 130.58 1270.27 167.36 1353.01 197.74Q1353.03 197.75 1353.03 197.75" opacity="0.35"></path><path d="M1325.53 184.68C1346.76 213.15 1306.04 246.26 1218.14 286.54 1105.28 330.91 994.32 389.36 908.1 465.48 859.43 548.72 852.37 647.09 879.26 750.09 934.45 835.12 998.28 893.63 1056.46 904.5 1108.28 865.05 1139.14 777.08 1148.33 664.6 1142.04 577.24 1118.74 545.7 1084.96 598.57 1043.23 725.32 999.01 883.02 957.42 1003.02 914.15 1027.77 877.1 940.88 848.63 781.45 820.15 638.65 801.59 585.88 791.16 641.13 779.04 774.44 771.46 912.05 763.83 990.65 748.26 983.54 724.67 892.85 687.07 758.79 633.98 619.3 562.24 517.09 473.1 467.84 377.6 471.51 280 512.68 195.15 567.78 138.62 632.33 120.13 681.01 147.93 707.66 213.28 723.29 308.03 719.11 409.9 701.64 486.81 679.61 521.76 652.47 500.53 623.99 424.39 595.52 319.72 567.05 216.5 535.37 135.17 499.14 100.04 451.51 115.53 386.54 175.23 310.54 266.63 214.96 370.09 106.52 473.37 7.53 559.78 -74.51 622.44 -115.5 661.07 -103.59 676.86 -35.14 677.19 74.68 662.78 179.09 645.15 244.25 631.2 230.5 614.24 131.03 606.72 -22.77 610.79 -167.07 615.04 -233.33 631.12 -186.37 659.59 -43.6 688.07 115.84 727.59 208.53 777.05 194.8 826.68 85.8 885.99 -55.68 952.3 -161.57 1015.61 -193.58 1080.14 -136.52 1138.45 -19.51 1182.01 122.62 1207.11 244.36 1205.81 321.13 1180.48 347.6 1127.84 329.97 1054.21 288.82 980.4 229.72 914.53 178.25 875.71 144.35 881.07 117.58 932.4 110.94 1024.71 120.26 1138.92 133.7 1249.36 156.19 1325.51 184.67Q1325.53 184.68 1325.53 184.68" opacity="0.94"></path><path d="M1297.78 279.4C1319.79 305.98 1287.29 345.6 1211.51 398.13 1109.63 452.11 1003.16 520.44 912.2 600.44 848.74 677.14 820.11 755.08 823.53 820.71 856.34 859.38 904.69 863.46 956.38 823.43 1010.84 752.15 1052.98 656.68 1079.01 565.16 1095.06 517.3 1094.8 530.98 1081.88 616.74 1061.79 751.61 1034.87 894.53 1005.48 988.8 974.14 994.25 944.13 903.91 917.55 753.81 890.97 618.28 869.08 558.44 850.31 593.45 829.57 705.46 808.13 837.99 782.17 935.64 749.03 968.8 705.52 923.64 648.5 822.44 581.5 691.94 501.21 570.22 411.91 481.22 325.38 431.63 245.52 423.12 185.04 441.83 153.94 483.26 158.73 526.77 202.71 560.83 274.19 594.16 365.53 610.89 457.15 611.22 522.68 609.11 549.79 594.1 527.78 567.52 457.86 540.95 361.91 504.06 264.37 456.03 181.51 405.58 135.61 340.5 133.02 261.11 170.41 180.99 241.23 93.71 330.49 11.32 428.46 -48.35 519.91 -78 596 -63.24 655.88 -9.08 695.7 81.11 719.05 183.93 727.82 257.46 728.49 278.79 727.25 226.16 720.63 109.05 718.66 -38.6 724.74 -160.88 730 -206.17 745.27 -151.74 771.85 -16.24 798.43 133.87 835.05 229.62 879.92 234.46 923.97 150.46 974.28 22.66 1026.97 -92.72 1074.26 -159.01 1117.37 -148.86 1149.56 -73.33 1167.18 45.84 1165.51 172.83 1140.47 278.95 1099.21 353.83 1039.28 387.9 968.99 390.2 907.4 365.53 860.42 331.36 842.5 300.73 864.58 266.78 925.61 246.8 1018.72 242.95 1126.53 240.55 1227.86 252.82 1297.78 279.4Q1297.78 279.4 1297.78 279.4" opacity="0.07"></path><path d="M1270.53 434.78C1292.48 459.46 1267.04 498.03 1202.63 548.23 1112.36 597.24 1012.98 654.61 921.5 713.95 825.54 782.95 808.65 792.68 860.81 703.89 907.92 625.45 950.65 545.95 983.62 490.88 1012.49 486.23 1028.05 538.92 1031.19 646.04 1029.27 778.87 1018.08 901.76 1000.41 970.36 981.06 958.95 958.34 866.93 933.66 726.45 908.97 598.61 883.51 533.45 856.31 549.95 827.43 639.25 793.72 760.08 752.88 866.65 706.97 930.89 650.76 929.41 583.85 869.66 512.85 767.41 434.68 650.46 355.23 543.76 284.94 456.52 227.23 401.96 191.99 376.71 184.06 376.73 207.7 391.49 262.69 409.52 336.07 434.86 421.41 452.07 502.15 456.6 557.04 461.38 577.48 451.97 555.53 427.29 492.1 402.61 405.08 363.83 314.05 312.5 231.56 261.42 177.49 199.32 159.15 131.21 175.23 70.4 223.97 15 294.76 -23.05 380.26 -35.83 467.96 -16.71 548.63 38.17 621.24 112.52 678.87 200.2 721.77 276.76 752.8 310.82 773.42 290.17 788.1 207.86 796.73 83.21 805.32 -51.66 817.36 -150.5 828.01 -176.55 844.96 -116.42 869.64 11.39 894.31 151.89 925.56 248.93 961.45 269.89 995.96 210.83 1032.27 101.99 1066.41 -12.75 1094.5 -101.78 1114.53 -132.35 1121.54 -102.01 1116.68 -21.24 1094.49 87.51 1054.23 198.29 1005.91 299.96 947.47 374.35 887.67 419.99 842.57 440.73 815.96 442.35 817.96 435.63 854.38 419.06 922.49 406.58 1014.5 404.12 1115.05 400.47 1207.07 410.09 1270.51 434.77Q1270.53 434.78 1270.53 434.78" opacity="0.37"></path><path d="M1242.72 572.41C1264.91 595.2 1246.37 625.79 1193.23 661.3 1115.28 694.21 1025.05 726.72 936.52 752.27 858.37 767.05 799.87 765.48 764.04 741.68 751.31 702.68 757.91 643.12 777.41 570.93 809.59 508.22 843.81 461.49 874.33 449.47 905.87 484.42 928.4 565.56 940.65 681.61 950.53 853.22 924.1 875.36 893.07 698.78 870.29 579.02 842.3 510.31 809 510.38 774.61 576.66 733.05 680.61 683.74 786.52 632.02 870.63 571.97 905.71 505.32 888.61 439.68 826.4 372.76 734.57 310.72 633.94 261.36 533.2 227.75 450.05 216.75 389.26 228.87 347.32 266.93 324.52 328.39 313.43 400.22 312.67 477.48 313.24 546.64 309.12 590.98 307.11 604.91 295.84 582.72 273.06 525.16 250.28 446.78 217.06 363 176.11 283.07 137.26 224.22 95.25 193.82 56.53 191.58 28.14 219.15 13.42 269.67 20.25 337.76 45.92 414.28 96.36 490.75 167.25 566.22 238.02 632.64 302.84 687.91 341.33 735.43 334.71 772.66 279.19 801.96 178.38 826.02 55.78 846.42 -61.13 865.85 -136.2 883.82 -145.06 903.63 -80.97 926.42 38.78 949.2 169.37 973.87 265.97 998.87 300.35 1022.4 265.09 1043.45 178.72 1058.86 73.48 1069.04 -25.87 1069.33 -86.58 1056.93 -97.8 1036.77 -62.06 1003.05 11.67 957.44 104.24 910.83 206.29 861.32 298.55 816.95 372.67 790.16 431.58 783.02 470.67 801.96 495.37 849.06 509.3 920.87 518.24 1009.59 528.29 1102.16 535.74 1185.16 549.63 1242.72 572.41Q1242.72 572.41 1242.72 572.41" opacity="0.22"></path><path d="M1215.53 623.88C1237.09 644.76 1224.17 664.4 1181.19 680.75 1115.35 694.63 1035.72 700.69 953.36 694.96 875.04 682.06 809.45 653.45 760.74 608.95 729.75 561.21 716.17 506.18 716.29 454.25 729.73 422.8 749.33 416.02 770.02 444.57 795.16 509.57 815.78 606.14 829.33 719.29 845.45 860.46 834.07 837.04 806.99 671.45 786.11 560.15 757.71 489.63 722.42 475.68 686.72 519.67 643.57 603.27 593.84 700.21 544.1 792.37 489.09 853.13 431.76 873.15 378.88 853.89 329.3 799.55 288.49 724.25 261 634.8 249.82 547.15 259.06 470.31 286.03 401.5 332.89 348.64 395.9 309.72 462.96 279.21 530.7 256.7 588.48 237.74 623.4 221.29 632.09 203.6 610.53 182.72 559.12 161.83 489.5 138.75 413.57 115.82 337.79 95.39 276.71 79.9 237.27 74.22 219.51 76.96 227.45 95.42 257.21 132.05 304.87 176.71 364.78 234.37 429.9 296.46 499.3 344.38 565.43 373.96 624.81 371.48 680.84 329.72 728.51 250.23 768.13 142.75 804.24 30.5 834.58 -64.96 860.56 -117.02 885.37 -111.13 907.97 -44.84 928.85 66.45 949.73 186.89 967.92 281.43 982.49 326.39 995.9 312.86 1003.55 250.64 1003.63 161.83 1000.21 63.98 986.93 -13.84 963.09 -57.1 935.9 -63.91 899.75 -32.36 857.71 26.44 819.97 105.75 784.81 190.76 758.9 270.68 750.87 347.37 761.66 410.38 794.71 459.46 849.45 501.38 922.41 533.31 1006.25 558.81 1090.24 581.84 1164.09 602.98 1215.51 623.87Q1215.53 623.88 1215.53 623.88" opacity="0.27"></path><path d="M1188.03 562.95C1208.98 581.93 1201.21 592.48 1167.81 594.09 1114.01 594.42 1046 583.76 972.26 561.56 897.79 537.54 830.13 503.15 773.75 462.13 714.3 411.77 676.71 398.48 684.36 472.82 696.92 554.73 708.85 653.35 717.27 753.59 727.36 835.35 731.58 884.36 728.55 886.37 725.71 841.11 715.12 754.02 696.14 643.95 677.15 541.47 650.67 470.83 617.71 445.49 584.93 468.93 546.18 530.46 503.19 612.04 461.86 701.25 418.67 775.01 376.86 821.62 341.07 839.88 311.57 825.66 292.56 786.12 285.38 726.23 293.13 656.3 317.68 585.72 354.29 513 404.93 448.6 465.48 394.96 525.31 345.07 582.51 305.14 628.98 273.78 655.05 244.1 658.98 220.1 638.03 201.11 592.35 182.13 531.17 169.06 463.47 162.93 393.38 158.49 332.91 163.89 288.13 180.88 258.96 201.61 250.65 234.75 261.55 278.22 288.61 319.53 329.31 362.2 378.35 397.22 434.71 411.87 492.42 403.58 547.62 365.55 603.15 299.17 653.21 208.39 696.63 105.26 738.52 9.76 774.21 -62.56 803.83 -93.33 832.78 -75.32 856.82 -8.52 875.8 93.95 894.79 204.02 907.81 294.95 914.67 347.54 920.85 352.86 919.7 314.65 910.72 246.81 900.2 160.49 881.39 78.89 855.13 16.76 829.19 -22.65 798.73 -30.47 767.26 -10.59 743.09 32.24 724.91 90.5 717.62 154.62 726.49 224.9 751.82 290.55 794.91 347.48 853.61 402.58 924.88 447.77 1002.3 483.25 1077.33 517.44 1142.35 543.96 1188.03 562.95Q1188.03 562.95 1188.03 562.95" opacity="0.43"></path><path d="M1160.51 420.33C1178.63 454.5 1109.39 446.29 990.86 404.81 857.14 373.17 746.36 341.68 675.38 357.74 640.12 447.09 630.88 607.94 626.97 779.97 632.72 864.32 623.2 801.84 589.02 616.44 554.85 454.49 499.27 428.24 434.29 527.14 378.98 684.27 334.88 787.52 325.36 798.88 351.55 734.71 426.09 627.86 534.76 528.21 628.24 425.12 683.63 353.37 665.51 319.19 569.15 285.02 445.46 291.66 345.61 335.53 286.02 375.95 291.52 429.48 344.56 448.86 430.05 392.71 524.34 253.22 605.14 71.04 686.45 -52.9 746.79 -40.5 780.97 121.44 815.14 306.84 819.91 383.17 797.82 323.87 776.24 176.89 735.28 52.28 694.58 7.72 686.33 36.45 717.07 121.27 801.71 212.13 926.61 312.83 1064.15 386.16 1160.51 420.33Q1160.51 420.33 1160.51 420.33" opacity="0.97"></path><path d="M1133.03 267.53C1153.49 297.91 1102.92 299.44 1007.41 287.26 890.07 291.98 780.1 317.75 696.3 392.83 635.38 511.57 599.13 665.11 575.7 794.41 561.62 835.36 543.3 757.39 512.92 588.95 482.55 439.31 442.99 391.71 404.43 450.19 375.22 578.97 364.06 695.86 385.17 754.29 429.16 759.43 506.91 711.84 601.98 647.81 675.23 569.96 713.49 508.16 693.03 477.79 610.3 447.41 502.92 451.33 408.51 476.54 337.33 487.93 315.25 488.11 335.29 443.17 384.89 344.92 451.67 195.81 515.64 44.77 584.26 -35.97 637.93 -0.68 668.31 148.95 700.8 362.53 665.91 221.28 646.42 81.7 666.19 46.42 720.48 68.07 813.91 115.98 930.59 180.81 1050.27 237.15 1133.01 267.52Q1133.03 267.53 1133.03 267.53" opacity="0.10"></path><path d="M1105.34 181.01C1127.27 207.59 1093.3 228.38 1020.62 254.61 924.24 295.22 824.65 364.35 739.42 469.56 665.29 588.49 610.85 712.33 572.28 793.64 540.63 797.87 513.64 711.42 487.06 561.29 448.66 394.64 421.41 527.91 467.18 658.72 517.57 711.56 588.98 718.93 665.87 697.83 719.07 662.14 742.27 623.83 720.34 597.25 650.49 570.68 559.85 558.35 474.91 547.97 400.48 523.01 360.34 474.16 354.19 386.48 370.8 273.47 407.69 140.01 450.11 30.43 498.57 -10.72 540.25 40.79 566.83 176.29 597.89 375.03 605.91 329.24 626.43 197.32 667.42 126.95 735.75 99.3 829.65 104.75 934.07 124.58 1035.49 154.43 1105.34 181.01Q1105.34 181.01 1105.34 181.01" opacity="0.24"></path><path d="M1077.87 204.34C1099.92 227.12 1079.76 263.5 1028.27 316.39 954.94 376.38 872.72 460.99 796.06 563.35 721.79 658.59 660.86 740.2 615.09 775.9 573.14 752.5 540.99 664.44 518.21 533.86 489.8 378.99 505.62 421.99 562.71 531.75 609.51 601.23 667.57 641.19 724.21 652.42 759 654.6 769.92 640.72 747.87 617.94 690.42 595.16 616.55 565.63 544.02 523.97 473.46 473.26 424.83 397.75 401.37 298.41 392.57 196.76 403.15 96.65 424.43 31.31 451.03 23.11 478.75 84.1 501.53 203.86 524.31 334.44 540 431.74 552.88 471.83 571.08 452.83 596.05 395.39 634.71 330.01 688.03 257.5 760.83 208.45 848.09 187.94 937.32 174.53 1020.42 181.56 1077.87 204.34Q1077.87 204.34 1077.87 204.34" opacity="0.86"></path><path d="M1050.51 325.75C1071.48 344.73 1062.24 384.57 1029.31 441.55 978.73 498.93 917.58 570.9 856.46 645.27 792.79 703.9 736.51 741.79 692.21 740.58 649.12 699.9 616.98 616.5 598 506.44 579.01 403.96 574.98 332.55 585.18 302.74 596.57 314.25 623.22 353.5 662.01 401 698.24 458.72 739.26 503.08 775.92 526.41 794.94 547.31 796.48 548.37 775.51 529.38 729.83 510.4 672.27 473.17 614 419.37 553 363.14 504.7 289.16 473.55 206.55 445.94 104.47 462.89 97.1 489.46 231.44 508.44 341.5 529.45 432.6 553.99 487.19 582.02 502.32 619.37 484.57 668 450.82 724.04 401.33 792.47 358.99 867.39 334.51 939.57 310.43 1004.83 306.77 1050.51 325.75Q1050.51 325.75 1050.51 325.75" opacity="0.13"></path><path d="M1022.88 484.22C1043.53 514.6 990.51 603.78 911.24 689.09 815.53 717.71 737.3 647.31 706.92 478.87 676.54 329.22 699.77 274.54 755.68 294.77 795.13 364.05 823.53 406.18 802.88 375.81 720.03 345.43 624.72 248.3 563.25 139.2 511.17 79.16 503.18 109.22 533.56 258.87 563.93 427.31 626.93 522.33 718.81 533.53 820.1 488.03 940.03 453.85 1022.88 484.22Q1022.88 484.22 1022.88 484.22" opacity="0.39"></path><path d="M995.42 600.53C1017.42 623.31 994.21 662.03 949.99 678.86 892.04 662.08 839.33 581.97 816.55 451.39 793.77 331.62 805.23 258.51 833.31 235.47 847.67 246.37 852.42 257.19 830.42 234.41 773 211.63 708.02 159.55 662.23 118.79 615.71 111.98 600.02 166.62 622.8 286.39 645.58 416.97 702.53 515.54 778.91 562.19 854.56 575.21 938 577.74 995.42 600.53Q995.42 600.53 995.42 600.53" opacity="0.85"></path><path d="M967.92 616.26C988.52 646.64 929.85 592.31 899.48 423.89 869.1 274.24 878.52 206.34 857.92 175.96 775.11 145.59 704 164.24 734.38 313.89 764.75 482.31 885.11 585.89 967.92 616.26Q967.92 616.26 967.92 616.26" opacity="0.60"></path></g></svg>